<?xml version="1.0" standalone="no"?>
<!DOCTYPE svg PUBLIC "-//W3C//DTD SVG 20010904//EN"
 "http://www.w3.org/TR/2001/REC-SVG-20010904/DTD/svg10.dtd">
<svg version="1.0" xmlns="http://www.w3.org/2000/svg"
 width="16.000000pt" height="16.000000pt" viewBox="0 0 16.000000 16.000000"
 preserveAspectRatio="xMidYMid meet">
<metadata>
Created by potrace 1.11, written by Peter Selinger 2001-2013
</metadata>
<g transform="translate(0.000000,16.000000) scale(0.005333,-0.005333)"
fill="#000000" stroke="none">
<path d="M1338 2979 c-86 -7 -250 -43 -345 -75 -76 -25 -253 -117 -334 -172
-341 -232 -582 -615 -631 -1002 -5 -41 -14 -98 -20 -126 -17 -81 4 -305 43
-462 69 -279 192 -496 393 -698 183 -182 399 -309 641 -378 33 -9 74 -21 90
-26 58 -18 212 -34 325 -34 483 2 939 238 1218 631 140 198 238 446 257 653 3
36 11 95 17 133 12 69 9 100 -28 347 -43 282 -194 569 -416 788 -322 317 -741
463 -1210 421z m232 -256 c82 -143 102 -308 51 -425 -30 -71 -66 -98 -127 -98
-47 0 -55 3 -87 39 -46 51 -61 119 -55 248 4 82 10 109 37 167 41 92 90 157
115 153 12 -1 36 -31 66 -84z m263 47 c15 -5 41 -15 57 -21 32 -12 40 -36 15
-46 -9 -3 -35 2 -58 11 -32 12 -218 46 -252 46 -11 0 -4 39 7 42 16 6 196 -19
231 -32z m-423 10 c0 -11 -2 -20 -5 -20 -30 0 -222 -35 -263 -47 -46 -15 -54
-15 -62 -3 -13 21 5 34 68 55 67 21 132 32 205 34 51 1 57 -1 57 -19z m-302
-109 c68 -35 112 -116 112 -208 0 -66 -23 -114 -89 -187 -73 -80 -78 -136 -20
-216 31 -42 31 -60 0 -60 -19 0 -63 56 -80 103 -24 63 -4 137 51 194 27 28 30
37 25 72 -15 112 -93 199 -192 216 -66 11 -75 15 -75 35 0 19 50 55 98 71 41
13 124 3 170 -20z m990 5 c15 -8 36 -23 46 -35 24 -27 7 -51 -38 -51 -46 0
-130 -43 -159 -82 -31 -41 -57 -109 -57 -150 0 -18 12 -45 29 -67 42 -54 53
-79 53 -126 2 -73 -60 -176 -97 -162 -19 8 -19 31 0 47 25 21 45 71 45 116 0
34 -7 51 -35 86 -106 131 -122 167 -110 244 13 87 79 176 143 190 15 3 32 8
37 10 19 7 117 -6 143 -20z m-1330 -266 c57 -42 66 -109 22 -170 -23 -33 -77
-54 -113 -45 -70 18 -95 107 -43 152 44 38 110 15 104 -36 -4 -33 -37 -42 -45
-12 -7 26 -19 27 -33 2 -7 -15 -5 -25 9 -42 16 -20 23 -22 47 -14 36 13 59 53
50 88 -8 35 -58 61 -102 53 -57 -11 -201 -182 -273 -323 l-21 -43 27 -42 c23
-34 28 -52 28 -104 0 -82 -16 -102 -63 -79 -17 9 -38 25 -46 37 -13 18 -15 16
-32 -39 -9 -33 -19 -106 -22 -169 -4 -105 -3 -111 19 -137 52 -59 129 -37 129
36 0 52 -41 77 -70 42 -10 -13 -10 -19 4 -33 20 -23 20 -38 1 -46 -57 -21 -87
67 -40 118 26 28 67 34 109 15 54 -25 60 -127 10 -180 -54 -56 -134 -46 -185
23 -27 39 -29 46 -29 137 1 91 4 118 30 221 21 87 74 212 125 300 83 140 208
285 265 309 37 16 103 7 138 -19z m1605 16 c77 -33 235 -244 320 -427 79 -169
118 -415 82 -507 -40 -98 -165 -121 -215 -40 -31 50 -34 75 -15 117 29 66 97
81 146 32 16 -16 29 -39 29 -50 0 -29 -43 -76 -63 -68 -22 8 -22 36 0 52 15
11 15 15 4 29 -19 23 -48 20 -66 -8 -14 -22 -14 -28 -1 -60 27 -64 104 -57
133 11 19 46 13 176 -14 280 -16 64 -17 65 -33 46 -9 -11 -30 -28 -48 -37 -30
-16 -32 -15 -46 6 -26 40 -29 75 -11 127 9 27 23 55 31 62 31 26 -5 102 -117
249 -91 120 -122 145 -175 144 -79 -2 -112 -67 -59 -119 40 -41 91 -25 83 26
-4 30 -28 37 -35 10 -7 -28 -40 -27 -49 1 -5 16 0 27 20 45 35 30 61 29 91 -2
33 -32 33 -84 1 -122 -20 -23 -32 -28 -69 -28 -53 0 -81 21 -109 82 -14 33
-16 47 -7 70 29 78 114 113 192 79z m-1350 -73 c17 -16 16 -18 -22 -57 -21
-23 -46 -55 -55 -73 -32 -64 -15 -177 39 -247 l26 -34 -41 -85 c-22 -47 -40
-88 -40 -90 0 -3 -20 -49 -45 -102 -25 -54 -56 -123 -70 -154 -13 -31 -45
-103 -72 -161 -27 -58 -57 -124 -67 -147 -24 -54 -42 -61 -64 -24 -25 44 -67
64 -133 65 -49 1 -64 -4 -100 -29 -25 -18 -53 -50 -67 -78 -16 -29 -31 -47
-43 -47 -27 0 -59 60 -59 113 0 37 5 51 31 76 26 27 38 31 84 31 30 0 57 -4
60 -10 4 -7 134 -11 135 -4 0 1 -9 21 -20 45 -29 64 -26 102 11 144 23 26 39
35 62 35 64 0 101 -75 57 -115 -16 -14 -23 -16 -32 -7 -10 10 -10 17 1 34 11
17 10 23 -3 36 -13 14 -17 13 -40 -2 -19 -12 -26 -25 -26 -49 0 -36 45 -120
82 -154 l24 -23 48 103 c53 115 55 143 11 201 -24 31 -24 35 -10 50 17 17 40
11 77 -21 15 -14 18 -12 31 19 8 18 22 79 32 135 16 94 17 104 1 149 -9 26
-16 54 -16 61 0 21 43 15 84 -13 31 -21 40 -24 47 -13 13 20 11 28 -11 59 -29
41 -50 106 -50 156 0 25 -9 61 -21 84 -34 64 -13 135 46 161 28 12 96 1 118
-18z m1093 3 c35 -23 47 -79 28 -130 -9 -22 -20 -68 -24 -101 -9 -69 -19 -98
-53 -153 -21 -32 -23 -41 -13 -61 11 -20 14 -21 26 -6 28 34 110 61 110 36 0
-5 -7 -25 -15 -44 -19 -46 -19 -112 0 -207 18 -85 33 -130 46 -130 5 0 9 4 9
8 0 4 14 16 30 26 25 14 34 15 45 6 21 -17 19 -28 -10 -62 -38 -45 -33 -89 21
-205 l46 -98 34 40 c37 42 74 113 74 140 0 40 -34 70 -65 59 -11 -5 -14 -15
-9 -39 3 -18 2 -35 -3 -38 -17 -11 -46 23 -46 53 0 68 74 93 132 44 27 -23 31
-32 31 -77 -1 -29 -7 -63 -15 -77 -8 -14 -14 -29 -15 -35 0 -10 75 -10 185 1
57 5 62 4 88 -24 39 -41 45 -89 17 -146 -28 -58 -52 -60 -79 -9 -39 74 -78
106 -143 117 -54 10 -113 -9 -151 -49 -19 -19 -39 -35 -44 -35 -6 0 -18 15
-26 33 -74 156 -107 228 -107 231 0 3 -16 39 -35 80 -19 42 -51 110 -70 152
-19 41 -35 77 -35 79 0 2 -20 46 -45 99 -25 53 -45 101 -45 107 0 6 11 25 24
42 80 106 73 222 -19 308 -43 41 -44 56 -2 75 37 16 88 12 123 -10z m-710
-201 c12 -3 28 -19 35 -36 35 -86 -77 -150 -128 -73 -13 21 -14 30 -5 45 17
26 0 24 -26 -3 -32 -35 -36 -70 -14 -120 21 -47 196 -335 216 -356 11 -11 17
-8 33 20 11 18 63 105 116 192 72 119 97 168 97 193 0 41 -13 69 -41 83 -18
10 -19 9 -13 -15 5 -19 1 -32 -17 -51 -30 -32 -72 -32 -104 1 -32 31 -32 66
-1 102 21 24 32 28 73 27 94 -1 148 -55 148 -149 0 -55 -4 -67 -51 -140 -28
-44 -86 -137 -128 -207 -81 -133 -95 -151 -112 -140 -26 18 -267 412 -278 455
-18 73 38 163 109 177 40 7 51 7 91 -5z m-706 -25 c20 -20 26 -65 12 -86 -13
-20 -52 -35 -72 -29 -11 3 -24 21 -29 38 l-9 32 -22 -49 c-19 -43 -22 -60 -17
-125 3 -42 15 -105 27 -139 26 -82 25 -98 -5 -128 -19 -19 -31 -23 -48 -18
-27 8 -46 33 -47 58 0 23 27 56 47 56 16 0 16 -1 -1 46 -19 56 -29 148 -21
205 8 57 37 105 84 136 42 28 75 29 101 3z m1703 -5 c60 -41 82 -94 80 -195 0
-50 -7 -103 -17 -129 -20 -54 -20 -61 -1 -61 22 0 48 -45 40 -70 -11 -34 -51
-55 -81 -42 -46 21 -49 50 -18 143 35 107 40 228 10 273 -19 27 -20 27 -27 8
-8 -21 -38 -42 -59 -42 -18 0 -60 48 -60 68 0 11 9 31 21 46 26 33 63 34 112
1z m-826 -156 c24 -12 51 -32 60 -46 15 -23 15 -26 -9 -50 -14 -14 -49 -33
-78 -43 -46 -16 -58 -16 -103 -4 -30 8 -63 25 -81 43 -28 28 -29 31 -13 54 21
33 93 67 141 67 22 0 59 -10 83 -21z m-434 -78 c26 -10 42 -34 226 -321 62
-96 115 -176 119 -177 4 -2 34 39 67 90 124 192 164 254 209 325 49 77 79 98
120 82 24 -9 65 -84 141 -260 18 -41 54 -119 79 -173 25 -54 46 -100 46 -103
0 -5 14 -37 79 -177 23 -49 41 -90 41 -92 0 -13 73 -155 80 -155 15 0 24 24
12 28 -17 5 -42 56 -42 86 0 27 47 72 86 82 57 15 134 -63 134 -134 0 -55 -78
-145 -187 -214 -42 -27 -51 -37 -45 -53 4 -11 7 -37 6 -58 0 -56 -37 -89 -107
-95 -51 -4 -57 -2 -92 30 -33 30 -39 41 -42 89 -5 70 18 109 86 144 49 25 50
25 39 56 -6 17 -26 62 -44 100 -19 38 -45 97 -60 132 -14 34 -41 94 -59 132
-18 39 -44 97 -58 130 -14 33 -43 98 -64 145 -21 47 -44 96 -49 110 -10 24
-16 17 -109 -125 -54 -83 -116 -177 -137 -209 -21 -32 -37 -64 -35 -70 3 -6
25 -45 51 -86 40 -64 46 -81 46 -127 0 -100 -48 -162 -139 -182 -125 -27 -235
43 -247 156 -6 51 -7 48 70 185 l37 67 -125 189 c-69 105 -129 197 -132 206
-3 9 -10 13 -16 10 -8 -5 -58 -106 -58 -118 0 -5 -44 -104 -96 -213 -19 -39
-34 -74 -34 -77 0 -3 -13 -35 -30 -71 -16 -36 -43 -94 -60 -130 -44 -96 -82
-187 -78 -189 2 -2 17 -8 33 -15 95 -38 134 -138 85 -218 -27 -45 -54 -56
-118 -51 -47 4 -60 10 -85 38 -27 30 -29 38 -24 86 l5 52 -56 40 c-146 104
-192 177 -162 257 15 39 72 85 105 85 22 0 77 -30 92 -49 21 -28 15 -79 -12
-107 -14 -14 -23 -30 -20 -35 12 -18 26 -9 40 25 8 19 35 78 60 131 25 53 45
98 45 100 0 4 39 90 91 203 16 34 29 64 29 66 0 3 18 44 41 93 22 48 47 102
54 118 97 214 94 208 142 224 1 1 13 -3 26 -8z m118 -507 l92 -145 -30 -42
c-53 -77 -68 -124 -68 -218 0 -81 2 -90 30 -131 17 -23 45 -50 64 -60 45 -23
45 -20 24 -77 -17 -49 -17 -54 -1 -98 18 -51 11 -73 -24 -73 -102 0 -156 134
-77 192 l29 22 -29 30 c-51 55 -66 101 -66 206 1 70 5 103 18 125 9 17 17 33
17 38 0 4 12 26 26 48 l25 41 -73 116 c-40 63 -79 126 -87 138 -12 19 -12 25
-2 38 20 23 28 14 132 -150z m576 69 c-68 -103 -127 -202 -127 -213 0 -6 11
-28 24 -49 85 -134 86 -284 2 -394 l-33 -43 33 -37 c37 -40 41 -64 20 -105
-21 -40 -49 -62 -87 -68 -57 -8 -66 5 -45 68 17 49 17 56 2 92 -23 54 -21 63
19 82 19 9 48 36 64 61 62 94 51 220 -30 341 -34 51 -35 61 -10 93 10 13 46
69 79 124 33 55 70 111 83 123 19 21 23 22 37 9 13 -14 10 -23 -31 -84z m-716
-183 c24 -13 26 -66 2 -100 -9 -14 -45 -55 -79 -91 -65 -68 -81 -101 -70 -144
7 -29 49 -44 72 -24 23 19 35 46 28 63 -8 20 -33 21 -40 1 -10 -24 -44 -19
-44 7 0 31 29 58 62 58 82 0 93 -123 16 -170 -46 -28 -71 -25 -112 14 -27 25
-36 41 -36 67 0 43 34 112 71 143 25 21 29 32 29 76 0 44 5 56 29 81 32 32 42
34 72 19z m826 -14 c23 -20 28 -32 30 -81 1 -51 6 -62 36 -94 47 -49 57 -71
57 -126 0 -111 -136 -141 -184 -40 -21 44 -20 67 5 99 24 31 72 35 103 9 18
-16 18 -15 -3 14 -12 18 -34 41 -50 52 -34 24 -76 86 -85 123 -5 20 -1 33 14
48 26 26 43 25 77 -4z m-1522 -448 c26 -40 70 -96 97 -125 34 -34 49 -57 45
-67 -10 -24 -24 -20 -71 24 -42 39 -156 198 -156 219 0 9 15 18 32 20 4 1 28
-32 53 -71z m2221 57 c14 -35 -160 -265 -199 -265 -33 0 -22 30 29 85 30 32
73 89 97 126 42 68 62 83 73 54z m-1101 -208 c33 -58 65 -152 65 -195 0 -53
-28 -137 -54 -161 -13 -12 -37 -23 -54 -23 -129 -4 -158 219 -50 380 37 55 60
54 93 -1z m-414 -74 c33 -20 69 -86 69 -127 0 -16 -11 -38 -26 -53 -21 -21
-32 -24 -62 -19 -42 6 -72 37 -72 72 0 27 32 64 55 64 23 0 31 -31 11 -45 -22
-17 -10 -47 18 -43 49 7 17 97 -42 119 -53 20 -132 -40 -132 -101 0 -55 71
-116 187 -161 l43 -17 19 42 c18 42 66 76 105 76 21 0 21 -46 0 -54 -25 -10
-12 -48 25 -73 32 -21 44 -23 180 -23 128 0 150 3 179 20 36 22 44 64 15 85
-10 8 -14 19 -9 30 16 42 118 -17 131 -76 7 -30 14 -35 30 -21 6 5 31 16 57
26 64 24 126 70 144 109 14 30 14 37 1 69 -19 45 -55 70 -102 70 -43 0 -72
-23 -84 -66 -12 -46 17 -74 47 -44 9 9 8 16 -4 29 -19 22 -11 52 12 47 9 -2
26 -15 37 -30 17 -23 18 -31 8 -57 -22 -51 -95 -65 -135 -25 -29 29 -31 65 -5
113 29 54 76 81 141 81 38 0 54 -6 82 -30 49 -43 72 -107 56 -154 -23 -72 -93
-127 -220 -175 -173 -66 -588 -69 -758 -5 -142 54 -232 138 -232 216 0 37 40
106 73 127 40 26 117 28 158 4z"/>
<path d="M1447 2665 c-22 -47 -21 -68 3 -90 20 -18 20 -17 20 53 0 40 -1 72
-3 72 -2 0 -11 -16 -20 -35z"/>
<path d="M1520 2637 c0 -70 9 -82 34 -45 13 19 13 25 0 57 -26 62 -34 59 -34
-12z"/>
<path d="M1400 2499 c0 -33 6 -47 33 -71 l32 -31 3 49 c3 43 0 51 -25 71 -38
31 -43 29 -43 -18z"/>
<path d="M1547 2517 c-25 -19 -28 -28 -25 -66 l3 -43 28 22 c33 26 48 59 40
89 -7 26 -11 26 -46 -2z"/>
<path d="M1558 2372 c-35 -23 -38 -28 -38 -74 0 -57 14 -60 44 -9 16 27 39
102 33 107 -1 1 -19 -10 -39 -24z"/>
<path d="M1404 2353 c9 -44 35 -94 54 -101 8 -2 12 11 12 45 0 44 -3 50 -36
71 l-37 24 7 -39z"/>
<path d="M952 2644 c-8 -4 6 -15 35 -29 60 -28 124 -96 148 -158 10 -26 22
-47 26 -47 16 0 9 104 -10 146 -25 55 -69 84 -134 90 -28 2 -58 1 -65 -2z"/>
<path d="M1930 2639 c-70 -28 -119 -124 -104 -205 8 -46 17 -43 32 10 17 66
69 126 139 163 51 26 58 32 40 37 -32 8 -78 6 -107 -5z"/>
<path d="M347 1954 c-10 -11 -9 -62 3 -85 15 -28 30 -23 30 9 -1 34 -23 86
-33 76z"/>
<path d="M2631 1935 c-23 -54 -25 -85 -7 -85 19 0 29 34 24 81 l-4 34 -13 -30z"/>
<path d="M906 2311 c-10 -11 -16 -30 -14 -42 3 -20 6 -19 31 19 29 44 17 60
-17 23z"/>
<path d="M884 1854 c3 -9 6 -25 7 -37 1 -20 2 -20 8 3 9 28 4 50 -11 50 -6 0
-7 -7 -4 -16z"/>
<path d="M300 1263 c-25 -9 -40 -35 -40 -67 l0 -31 18 30 c11 17 26 36 35 44
29 23 22 36 -13 24z"/>
<path d="M2050 2325 c0 -12 48 -73 54 -68 12 12 6 33 -14 53 -18 18 -40 27
-40 15z"/>
<path d="M2093 1854 c-3 -8 -1 -25 5 -37 10 -20 11 -18 11 16 1 39 -5 48 -16
21z"/>
<path d="M2670 1263 c1 -5 16 -26 35 -48 33 -38 35 -39 35 -15 0 31 -8 44 -37
59 -25 13 -33 14 -33 4z"/>
<path d="M1354 2093 c4 -31 33 -44 42 -19 7 18 -12 46 -32 46 -8 0 -12 -10
-10 -27z"/>
<path d="M1590 2105 c-16 -19 -5 -47 17 -43 11 2 18 14 20 31 2 30 -17 36 -37
12z"/>
<path d="M655 2090 c3 -5 8 -10 11 -10 2 0 4 5 4 10 0 6 -5 10 -11 10 -5 0 -7
-4 -4 -10z"/>
<path d="M545 1690 c-3 -5 -1 -10 4 -10 6 0 11 5 11 10 0 6 -2 10 -4 10 -3 0
-8 -4 -11 -10z"/>
<path d="M2325 2090 c-3 -5 -1 -10 4 -10 6 0 11 5 11 10 0 6 -2 10 -4 10 -3 0
-8 -4 -11 -10z"/>
<path d="M2430 1697 c0 -19 16 -31 24 -18 3 5 -1 14 -9 21 -12 10 -15 10 -15
-3z"/>
<path d="M1409 1914 c-10 -13 -10 -17 2 -25 23 -14 29 -11 29 16 0 29 -12 32
-31 9z"/>
<path d="M1513 1918 c2 -7 11 -12 21 -10 9 2 16 -4 16 -13 0 -17 9 -19 30 -5
13 9 12 12 -4 25 -24 18 -69 20 -63 3z"/>
<path d="M1085 1754 c-19 -41 -35 -77 -35 -79 0 -3 -27 -61 -60 -130 -33 -69
-60 -128 -60 -130 0 -2 -23 -53 -51 -112 -27 -59 -54 -117 -59 -128 -5 -11
-30 -64 -54 -118 -25 -53 -55 -120 -67 -147 -12 -28 -27 -50 -34 -50 -18 0
-92 56 -105 80 -6 11 -8 30 -5 40 9 28 -3 44 -21 29 -42 -35 4 -105 109 -169
109 -66 132 -90 130 -140 -2 -34 1 -41 15 -38 11 2 18 15 20 36 3 27 -5 40
-52 88 -31 30 -56 59 -56 63 0 8 38 92 122 271 22 47 55 119 73 160 18 41 54
119 79 173 25 54 46 99 46 101 0 2 23 52 51 110 49 102 70 124 83 90 3 -8 39
-66 79 -127 180 -273 230 -353 234 -368 3 -9 -9 -36 -25 -60 -80 -119 -95
-169 -68 -234 18 -42 61 -65 121 -65 84 0 125 39 125 119 0 47 -17 88 -70 166
-22 33 -40 63 -40 67 0 4 31 54 68 110 37 57 113 172 168 255 54 84 105 152
112 150 7 -1 30 -40 51 -87 21 -47 57 -125 80 -173 22 -49 41 -90 41 -92 0 -2
27 -60 60 -129 33 -69 60 -127 60 -130 0 -2 24 -55 54 -117 58 -122 86 -187
86 -199 0 -4 -17 -19 -39 -34 -64 -45 -95 -135 -49 -144 14 -3 17 5 16 38 -1
52 30 86 122 136 97 54 144 113 126 159 -11 29 -36 17 -36 -18 0 -18 -7 -42
-15 -54 -16 -22 -75 -63 -92 -63 -6 0 -68 125 -138 278 -70 152 -145 313 -165
357 -81 172 -127 271 -141 303 -7 17 -16 32 -19 32 -5 0 -73 -103 -280 -422
-45 -70 -86 -126 -89 -124 -8 5 -53 72 -153 226 -176 271 -209 320 -213 320
-3 0 -21 -34 -40 -76z m442 -576 c61 -97 75 -133 67 -174 -11 -57 -43 -84
-102 -84 -85 0 -131 63 -103 141 13 37 92 158 103 159 4 0 20 -19 35 -42z"/>
<path d="M1463 1088 c-44 -75 -33 -112 32 -106 35 3 40 6 43 30 3 27 -34 108
-49 108 -4 0 -16 -15 -26 -32z"/>
<path d="M1289 676 c-9 -20 -9 -32 -1 -51 18 -40 30 -29 24 23 -6 58 -8 61
-23 28z"/>
<path d="M1681 647 l-1 -51 21 21 c24 23 21 66 -5 76 -10 4 -14 -7 -15 -46z"/>
<path d="M1077 1217 c-4 -10 -7 -26 -7 -35 1 -15 2 -15 11 1 6 10 9 25 7 35
-3 16 -4 15 -11 -1z"/>
<path d="M1912 1194 c7 -15 14 -21 16 -15 5 16 -5 41 -17 41 -7 0 -6 -10 1
-26z"/>
<path d="M2012 983 c-2 -17 -8 -23 -27 -23 -16 0 -25 6 -25 15 0 20 -29 19
-37 -1 -8 -23 17 -64 45 -71 35 -8 54 16 49 63 -2 21 -4 29 -5 17z"/>
<path d="M1461 564 c0 -11 3 -14 6 -6 3 7 2 16 -1 19 -3 4 -6 -2 -5 -13z"/>
<path d="M1521 564 c0 -11 3 -14 6 -6 3 7 2 16 -1 19 -3 4 -6 -2 -5 -13z"/>
<path d="M1440 481 c0 -10 7 -24 15 -31 13 -11 15 -9 15 13 0 14 -7 27 -15 31
-10 3 -15 -1 -15 -13z"/>
<path d="M1532 488 c-14 -14 -16 -38 -2 -38 13 0 32 38 22 44 -5 3 -14 0 -20
-6z"/>
<path d="M1440 383 c0 -5 7 -18 15 -29 15 -18 15 -18 13 5 -3 23 -28 44 -28
24z"/>
<path d="M1520 364 c0 -28 15 -25 23 6 3 13 0 20 -9 20 -8 0 -14 -10 -14 -26z"/>
</g>
</svg>
